<?xml version="1.0" standalone="no"?>
<!DOCTYPE svg PUBLIC "-//W3C//DTD SVG 20010904//EN"
 "http://www.w3.org/TR/2001/REC-SVG-20010904/DTD/svg10.dtd">
<svg version="1.0" xmlns="http://www.w3.org/2000/svg"
 width="225.000000pt" height="225.000000pt" viewBox="0 0 225.000000 225.000000"
 preserveAspectRatio="xMidYMid meet">

<g transform="translate(0.000000,225.000000) scale(0.100000,-0.100000)"
fill="#000000" stroke="none">
<path d="M923 1438 c1 -39 -4 -48 -28 -48 -21 0 -25 -5 -25 -30 0 -28 -3 -30
-35 -30 -33 0 -35 -2 -35 -35 0 -31 -3 -35 -25 -35 -25 0 -25 0 -25 -96 0 -95
0 -96 -22 -90 -13 3 -31 6 -40 6 -16 0 -18 11 -18 90 0 65 -3 90 -12 90 -10 0
-12 -23 -10 -90 3 -85 2 -90 -17 -90 -17 0 -21 -6 -21 -35 0 -29 4 -36 28 -42
31 -9 283 -8 390 1 l72 7 0 -31 c0 -25 4 -30 25 -30 21 0 25 -5 25 -29 0 -23
-5 -30 -22 -33 -18 -2 -24 -11 -26 -34 l-3 -32 -88 -11 c-94 -12 -242 -14
-278 -5 -34 9 -17 24 28 24 24 0 42 5 45 14 4 10 45 17 150 26 l144 13 0 28
c0 15 -3 30 -7 32 -5 2 -68 -1 -142 -8 -88 -9 -155 -10 -195 -4 -72 10 -90 10
-56 -1 l25 -8 -27 -1 c-15 -1 -39 -6 -53 -11 -21 -8 -26 -16 -23 -36 3 -23 19
-35 107 -80 103 -53 105 -54 170 -48 56 6 74 3 109 -15 45 -23 81 -26 163 -12
30 5 75 12 102 16 39 5 47 10 47 27 0 19 -4 20 -57 14 -32 -4 -82 -9 -110 -13
l-53 -6 0 32 c0 26 4 31 25 31 22 0 25 4 25 35 0 32 2 35 30 35 27 0 30 3 30
30 0 27 -3 30 -30 30 -27 0 -30 3 -30 30 0 25 -4 30 -25 30 -21 0 -25 5 -25
30 0 23 5 31 25 36 19 5 25 13 25 35 0 24 -4 29 -25 29 -22 0 -25 -4 -25 -35
0 -32 -3 -35 -28 -35 -16 0 -70 -3 -120 -6 l-92 -7 0 107 0 106 35 0 c32 0 35
2 35 30 0 27 3 30 30 30 28 0 30 3 30 35 l0 35 55 0 55 0 0 -35 c0 -31 3 -35
25 -35 21 0 25 5 25 30 l0 30 65 0 c62 0 65 1 65 24 0 21 -5 24 -61 30 -112
11 -297 7 -296 -6z m-157 -585 c-22 -3 -45 -12 -52 -21 -7 -10 -16 -13 -21 -8
-4 5 -2 11 5 13 6 3 10 9 6 14 -3 5 18 8 48 7 46 -1 48 -2 14 -5z"/>
<path d="M817 1433 c-11 -10 -8 -43 3 -43 6 0 10 11 10 25 0 26 -2 29 -13 18z"/>
<path d="M750 1355 c0 -16 6 -25 15 -25 9 0 15 9 15 25 0 16 -6 25 -15 25 -9
0 -15 -9 -15 -25z"/>
<path d="M1310 1355 c0 -21 5 -25 30 -25 25 0 30 4 30 25 0 21 -5 25 -30 25
-25 0 -30 -4 -30 -25z"/>
<path d="M1160 1236 l0 -96 25 0 26 0 -3 93 c-3 87 -4 92 -25 95 -22 3 -23 1
-23 -92z"/>
<path d="M693 1293 c5 -39 27 -42 27 -4 0 21 -5 31 -15 31 -11 0 -15 -8 -12
-27z"/>
<path d="M1412 1293 c-2 -28 -6 -33 -27 -33 -21 0 -25 -5 -25 -30 0 -25 -4
-30 -25 -30 -21 0 -25 -5 -25 -30 0 -25 -4 -30 -25 -30 -24 0 -25 -3 -25 -60
0 -54 2 -60 21 -60 18 0 20 5 17 38 -3 20 -1 46 3 57 7 17 8 16 8 -7 1 -21 7
-29 26 -34 18 -4 25 -13 25 -30 0 -19 -5 -24 -25 -24 -21 0 -25 -5 -25 -31 0
-24 3 -30 16 -25 9 3 18 6 20 6 2 0 4 9 4 21 0 12 8 23 20 26 14 4 20 14 20
34 0 25 -4 29 -26 29 -24 0 -26 3 -22 35 2 19 1 36 -3 37 -4 2 -1 12 7 22 13
19 14 19 14 -7 0 -40 28 -35 32 6 3 32 4 32 61 35 53 3 57 5 57 27 0 23 -4 25
-44 25 -43 0 -45 1 -49 33 l-4 32 -1 -32z"/>
<path d="M930 1197 l0 -64 30 5 c29 4 30 5 30 63 0 59 0 59 -30 59 l-30 0 0
-63z"/>
<path d="M1501 1004 c0 -11 3 -14 6 -6 3 7 2 16 -1 19 -3 4 -6 -2 -5 -13z"/>
<path d="M571 991 c-11 -7 -11 -10 0 -17 7 -4 14 -3 17 4 2 7 8 12 13 12 6 0
7 -4 4 -10 -3 -5 -1 -10 4 -10 6 0 11 7 11 15 0 16 -27 20 -49 6z"/>
<path d="M1360 940 c0 -31 0 -31 50 -29 48 2 50 4 50 31 0 27 -2 28 -50 28
-49 0 -50 -1 -50 -30z"/>
<path d="M590 950 c20 -13 33 -13 25 0 -3 6 -14 10 -23 10 -15 0 -15 -2 -2
-10z"/>
<path d="M1360 827 c0 -20 4 -23 30 -19 21 3 30 10 30 23 0 14 -7 19 -30 19
-25 0 -30 -4 -30 -23z"/>
<path d="M991 690 c-19 -5 -70 -11 -113 -15 -43 -4 -78 -11 -78 -16 0 -5 -6
-9 -13 -9 -25 0 -67 -25 -67 -40 0 -34 55 -43 219 -37 144 5 183 10 299 39 53
13 56 39 7 57 -19 7 -40 9 -46 5 -7 -4 -9 -3 -6 3 4 6 -5 10 -21 9 -15 0 -54
2 -87 6 -33 3 -75 2 -94 -2z"/>
</g>
</svg>
